<svg width="65" height="39" viewBox="0 0 65 39" fill="none" xmlns="http://www.w3.org/2000/svg">
<g clip-path="url(#clip0_6_50)">
<path d="M28.8881 39.0431H5.56853C4.09338 39.0409 2.67862 38.4532 1.63553 37.4091C0.592435 36.3649 0.00611402 34.9493 0.00390625 33.4726V5.62048C0.00390625 4.14311 0.590598 2.72615 1.63417 1.6815C2.67774 0.636837 4.0927 0.0500435 5.56853 0.0500435H26.2647L45.101 10.9374L28.8881 39.0431ZM10.8873 23.4736L8.72988 27.3159L9.44856 27.8923C10.6422 28.7373 11.9983 29.3255 13.4305 29.6193V32.5438H18.036V29.4215C19.1579 29.0113 20.1734 28.3546 21.0085 27.4997C21.9658 26.4893 22.4984 25.1489 22.4947 23.7563C22.5346 22.3969 22.0541 21.0737 21.1511 20.0576C19.9983 18.8938 18.6063 17.9941 17.0727 17.4201C15.9884 17.0143 15.0191 16.3521 14.2456 15.4899L14.232 15.4718C14.2195 15.4509 14.2132 15.4412 14.2062 15.4412C14.1992 15.4412 14.2062 15.4411 14.2062 15.4508C14.1953 15.2886 14.23 15.1265 14.3054 14.9825C14.3808 14.8385 14.4933 14.7182 14.6328 14.6349C15.0804 14.3238 15.6198 14.1713 16.1639 14.2017C17.2326 14.1433 18.2869 14.4659 19.1405 15.1124L20.0982 15.9285L22.5423 11.8899L21.5356 11.3162C20.4997 10.7769 19.4066 10.3564 18.2764 10.0628V6.98792H13.6709V10.1575C12.6174 10.4989 11.6626 11.0915 10.8886 11.8843C9.96272 12.8897 9.46382 14.2161 9.49746 15.5831C9.49746 17.9505 11.4336 19.9853 15.2523 21.6341C16.0174 21.9363 17.7955 22.7481 17.7955 23.8413C17.8039 24.0481 17.7602 24.2536 17.6678 24.4387C17.5753 24.6238 17.4373 24.7824 17.267 24.8997C16.72 25.278 16.0628 25.4627 15.399 25.4247C14.133 25.4657 12.8923 25.0584 11.8967 24.2745L10.8873 23.4556V23.4736ZM58.4338 39.0375H32.1078L47.5138 12.3231L64.0039 21.8514V33.4643C64.0024 34.9428 63.4156 36.3603 62.3709 37.4055C61.3263 38.4507 59.9095 39.0381 58.4325 39.0388L58.4338 39.0375ZM63.9985 18.6357L48.9022 9.91101L54.5932 0.0444336H58.4325C59.9076 0.0466437 61.3224 0.634256 62.3655 1.67844C63.4086 2.72262 63.9949 4.13817 63.9971 5.61487V18.6386L63.9985 18.6357ZM46.4908 8.5184L31.8293 0.0444336H51.3789L46.4935 8.5184H46.4908Z" fill="#EEEEEE"/>
</g>
<defs>
<clipPath id="clip0_6_50">
<rect width="64" height="39" fill="white" transform="translate(0.5)"/>
</clipPath>
</defs>
</svg>
